<mxfile host="app.diagrams.net" modified="2023-06-17T07:35:59.535Z" agent="Mozilla/5.0 (Macintosh; Intel Mac OS X 10_15_7) AppleWebKit/605.1.15 (KHTML, like Gecko) Version/16.5 Safari/605.1.15" etag="kjEypz8J81h3BkiDKEA9" version="21.4.0">
  <diagram name="Seite-1" id="1lOM7LZerqZPnMOpxiHa">
    <mxGraphModel dx="391" dy="261" grid="1" gridSize="10" guides="1" tooltips="1" connect="1" arrows="1" fold="1" page="1" pageScale="1" pageWidth="827" pageHeight="1169" math="0" shadow="0">
      <root>
        <mxCell id="0" />
        <mxCell id="1" parent="0" />
        <mxCell id="uNqrZ6btCF_Ytb-3M43g-7" value="" style="endArrow=classic;html=1;rounded=0;startArrow=none;startFill=0;endFill=1;exitX=1;exitY=0.5;exitDx=0;exitDy=0;entryX=0;entryY=0.25;entryDx=0;entryDy=0;" edge="1" parent="1" source="uNqrZ6btCF_Ytb-3M43g-9" target="uNqrZ6btCF_Ytb-3M43g-8">
          <mxGeometry width="50" height="50" relative="1" as="geometry">
            <mxPoint x="209.82999999999998" y="190.00000000000003" as="sourcePoint" />
            <mxPoint x="209.82999999999998" y="239.83" as="targetPoint" />
          </mxGeometry>
        </mxCell>
        <mxCell id="uNqrZ6btCF_Ytb-3M43g-8" value="v" style="text;strokeColor=none;align=center;fillColor=none;html=1;verticalAlign=middle;whiteSpace=wrap;rounded=0;" vertex="1" parent="1">
          <mxGeometry x="200" y="230" width="20" height="20" as="geometry" />
        </mxCell>
        <mxCell id="uNqrZ6btCF_Ytb-3M43g-9" value="&lt;b&gt;&lt;font size=&quot;1&quot;&gt;V&lt;/font&gt;&lt;span style=&quot;font-size: 9px;&quot;&gt;&lt;sup&gt;&amp;nbsp;--&amp;gt; v&lt;/sup&gt;&lt;/span&gt;&lt;/b&gt;" style="text;strokeColor=none;align=center;fillColor=none;html=1;verticalAlign=middle;whiteSpace=wrap;rounded=0;" vertex="1" parent="1">
          <mxGeometry x="130" y="200" width="30" height="20" as="geometry" />
        </mxCell>
        <mxCell id="uNqrZ6btCF_Ytb-3M43g-10" value="&lt;b&gt;&lt;font size=&quot;1&quot;&gt;V&lt;/font&gt;&lt;span style=&quot;font-size: 9px;&quot;&gt;&lt;sup&gt;&amp;nbsp;&amp;lt;-- v&lt;/sup&gt;&lt;/span&gt;&lt;/b&gt;" style="text;strokeColor=none;align=center;fillColor=none;html=1;verticalAlign=middle;whiteSpace=wrap;rounded=0;" vertex="1" parent="1">
          <mxGeometry x="130" y="260" width="30" height="20" as="geometry" />
        </mxCell>
        <mxCell id="uNqrZ6btCF_Ytb-3M43g-11" value="" style="endArrow=classic;html=1;rounded=0;startArrow=none;startFill=0;endFill=1;entryX=1;entryY=0.5;entryDx=0;entryDy=0;exitX=0;exitY=0.75;exitDx=0;exitDy=0;" edge="1" parent="1" source="uNqrZ6btCF_Ytb-3M43g-8" target="uNqrZ6btCF_Ytb-3M43g-10">
          <mxGeometry width="50" height="50" relative="1" as="geometry">
            <mxPoint x="200" y="245" as="sourcePoint" />
            <mxPoint x="160" y="245" as="targetPoint" />
          </mxGeometry>
        </mxCell>
      </root>
    </mxGraphModel>
  </diagram>
</mxfile>
